<svg width="78" height="80" viewBox="0 0 78 80" fill="none" xmlns="http://www.w3.org/2000/svg">
<path d="M59.7035 55.2291L48.1993 61.1382C47.2031 60.1345 45.8237 59.5119 44.3012 59.5119H36.3738C36.0212 59.5119 35.8921 59.4902 35.8534 59.481C35.7815 59.4322 35.6023 59.2636 35.457 59.1268L35.3812 59.0554C28.9287 52.9791 23.4763 53.3645 17.2754 55.8119C16.305 56.1947 16.2865 56.1955 15.3247 56.2394L13.5784 56.2416C13.0332 54.6965 11.5605 53.5859 9.83293 53.5859H4.00009C1.8102 53.5859 0.0285645 55.3696 0.0285645 57.562V72.8592C0.0285645 75.0492 1.8102 76.8309 4.00009 76.8309H9.83277C11.5605 76.8309 13.0332 75.7216 13.5784 74.178H16.7859C17.149 74.2094 17.503 74.2833 17.8482 74.3996L32.9313 78.4328C33.5918 78.6119 34.1981 78.7881 34.7847 78.9586C36.7326 79.5246 38.37 80.0004 40.0772 80.0002C42.006 80.0002 44.0239 79.3929 46.6785 77.6222C46.6918 77.6133 46.7049 77.6044 46.7178 77.5952L65.3151 64.3521C67.7596 62.608 68.4723 59.4599 66.972 57.0281C65.4891 54.6306 62.3633 53.8576 59.7035 55.2291ZM10.6795 72.8594C10.6795 73.3184 10.2917 73.7062 9.83277 73.7062H4.00009C3.54105 73.7062 3.15341 73.3184 3.15341 72.8594V57.5621C3.15341 57.1008 3.54121 56.7109 4.00009 56.7109H9.83277C10.2918 56.7109 10.6795 57.1008 10.6795 57.5621V72.8594ZM63.5011 61.8077L44.9247 75.036C41.1436 77.5526 39.5344 77.0848 35.6562 75.958C35.0565 75.7837 34.4364 75.6036 33.7436 75.4156L18.6564 71.3813C18.0494 71.193 17.4257 71.0837 16.7856 71.0533H13.8043V59.3681L15.4669 59.3611C16.656 59.3069 17.0248 59.27 18.4222 58.7188C23.7969 56.5974 27.9445 56.3447 33.2402 61.3316L33.3151 61.402C34.2269 62.2605 34.7919 62.6366 36.3738 62.6366H44.3012C45.6082 62.6366 46.6714 63.7 46.6714 65.0069C46.6714 66.3116 45.6082 67.3729 44.3012 67.3729H31.4492C30.5863 67.3729 29.8868 68.0724 29.8868 68.9353C29.8868 69.7983 30.5863 70.4978 31.4492 70.4978H44.3012C47.3313 70.4978 49.7963 68.0346 49.7963 65.0069C49.7963 64.6241 49.7566 64.2504 49.6818 63.8895L61.1331 58.0074C62.1769 57.4695 63.6048 57.5247 64.3132 58.6704C64.9379 59.683 64.5882 61.0321 63.5011 61.8077Z" fill="url(#paint0_linear)"/>
<path d="M35.9928 36.9558C34.3015 37.7797 33.1329 39.5162 33.1329 41.5206C33.1329 43.7307 34.556 45.6137 36.5342 46.3062V48.6332C36.5342 51.4826 38.8503 53.8008 41.6971 53.8008H48.6191C51.4683 53.8008 53.7865 51.4826 53.7865 48.6332V46.3062C55.7646 45.6137 57.1877 43.7305 57.1877 41.5206C57.1877 39.516 56.0192 37.7795 54.3277 36.9557C55.0119 34.4139 56.3988 32.5214 57.8575 30.5361C60.1015 27.4822 62.6448 24.0208 62.6393 17.9238C62.6393 17.3794 62.6168 16.8207 62.5724 16.2631C62.504 15.4028 61.7529 14.763 60.891 14.8294C60.0308 14.8978 59.389 15.6506 59.4574 16.5109C59.4952 16.9863 59.5145 17.4616 59.5145 17.925C59.519 22.9973 57.4888 25.7604 55.3392 28.6858C53.7082 30.9055 52.0297 33.1937 51.2299 36.4459H39.0901C38.2903 33.194 36.6114 30.906 34.98 28.6864C32.8298 25.7611 30.799 22.9979 30.8057 17.9255C30.8126 12.5169 33.1298 9.10109 35.0727 7.18806C37.7479 4.55381 41.4122 3.07326 45.138 3.12576C45.153 3.12592 45.1678 3.12592 45.1828 3.12576C48.2185 3.07967 51.263 4.06915 53.7485 5.90672C54.4421 6.41966 55.4208 6.27295 55.9337 5.57923C56.4466 4.88536 56.3001 3.90697 55.6062 3.39403C52.58 1.15695 48.8711 -0.0465861 45.16 0.00138035C40.6151 -0.0540857 36.1417 1.75067 32.8805 4.96208C29.4856 8.30504 27.6877 12.7865 27.6812 17.9219C27.673 24.0215 30.2176 27.4833 32.4625 30.5375C33.9213 32.5223 35.3086 34.4145 35.9928 36.9558ZM50.6618 48.6334C50.6618 49.7597 49.7456 50.6761 48.6192 50.6761H41.6972C40.5734 50.6761 39.6592 49.7597 39.6592 48.6334V46.5908H50.6618V48.6334ZM38.2074 39.571H52.1134C53.1884 39.571 54.063 40.4457 54.063 41.5206C54.063 42.5932 53.1885 43.4658 52.1134 43.4658H38.2074C37.1324 43.4658 36.2578 42.5932 36.2578 41.5206C36.2578 40.4457 37.1324 39.571 38.2074 39.571Z" fill="url(#paint1_linear)"/>
<path d="M46.7227 11.414C46.7227 10.5511 46.0233 9.85156 45.1603 9.85156C44.2974 9.85156 43.5979 10.5511 43.5979 11.414V21.1043C43.5979 21.9672 44.2974 22.6667 45.1603 22.6667C46.0233 22.6667 46.7227 21.9672 46.7227 21.1043V11.414Z" fill="url(#paint2_linear)"/>
<path d="M45.1604 26.6094C44.2974 26.6094 43.5979 27.3089 43.5979 28.1719V28.1808C43.5979 29.0437 44.2974 29.7389 45.1604 29.7389C46.0234 29.7389 46.7229 29.035 46.7229 28.172C46.7229 27.3091 46.0234 26.6094 45.1604 26.6094Z" fill="url(#paint3_linear)"/>
<path d="M76.4093 17.9121H70.063C69.2001 17.9121 68.5006 18.6116 68.5006 19.4745C68.5006 20.3375 69.2001 21.037 70.063 21.037H76.4093C77.2722 21.037 77.9717 20.3375 77.9717 19.4745C77.9717 18.6116 77.2722 17.9121 76.4093 17.9121Z" fill="url(#paint4_linear)"/>
<path d="M67.4382 7.84684C67.7375 7.84684 68.0402 7.7609 68.3074 7.58154L73.573 4.04733C74.2895 3.56642 74.4805 2.59584 73.9996 1.87931C73.5188 1.16294 72.5482 0.971859 71.8315 1.45277L66.5659 4.98698C65.8493 5.46789 65.6584 6.43862 66.1393 7.15499C66.441 7.60419 66.9349 7.84684 67.4382 7.84684Z" fill="url(#paint5_linear)"/>
<path d="M73.5731 34.901L68.3074 31.3668C67.5909 30.8859 66.6202 31.077 66.1394 31.7934C65.6585 32.5097 65.8496 33.4805 66.566 33.9614L71.8316 37.4956C72.0988 37.675 72.4014 37.7609 72.7008 37.7609C73.2041 37.7609 73.6981 37.5183 73.9996 37.0691C74.4806 36.3525 74.2896 35.3818 73.5731 34.901Z" fill="url(#paint6_linear)"/>
<path d="M13.9114 21.037H20.2533C21.1162 21.037 21.8157 20.3375 21.8157 19.4745C21.8157 18.6116 21.1162 17.9121 20.2533 17.9121H13.9114C13.0485 17.9121 12.349 18.6116 12.349 19.4745C12.349 20.3375 13.0485 21.037 13.9114 21.037Z" fill="url(#paint7_linear)"/>
<path d="M16.7476 4.04733L22.0133 7.58154C22.2805 7.7609 22.5831 7.84684 22.8825 7.84684C23.3858 7.84684 23.8798 7.60419 24.1813 7.15499C24.6623 6.43862 24.4712 5.46789 23.7548 4.98698L18.4891 1.45277C17.7726 0.971859 16.802 1.16294 16.3211 1.87931C15.8402 2.59569 16.0311 3.56642 16.7476 4.04733Z" fill="url(#paint8_linear)"/>
<path d="M22.0133 31.3668L16.7476 34.901C16.0311 35.382 15.8402 36.3527 16.3211 37.0691C16.6226 37.5183 17.1165 37.7609 17.6199 37.7609C17.9193 37.7609 18.2219 37.675 18.4891 37.4956L23.7548 33.9614C24.4713 33.4805 24.6623 32.5097 24.1813 31.7934C23.7004 31.077 22.7297 30.8859 22.0133 31.3668Z" fill="url(#paint9_linear)"/>
<path d="M57.975 10.8183C58.2797 11.1228 58.6779 11.2749 59.0765 11.2749C59.4765 11.2749 59.8769 11.1218 60.1825 10.8161C60.7926 10.206 60.7904 9.21441 60.1803 8.6041C59.5701 7.99395 58.5808 7.99395 57.9704 8.6041C57.3603 9.21426 57.3603 10.2036 57.9704 10.8139L57.975 10.8183Z" fill="url(#paint10_linear)"/>
<defs>
<linearGradient id="paint0_linear" x1="-12.6172" y1="53.5859" x2="50.6092" y2="102.796" gradientUnits="userSpaceOnUse">
<stop stop-color="#4BD8B5"/>
<stop offset="1" stop-color="#49D6DF"/>
</linearGradient>
<linearGradient id="paint1_linear" x1="21.1538" y1="-2.82846e-07" x2="71.597" y2="9.94958" gradientUnits="userSpaceOnUse">
<stop stop-color="#4BD8B5"/>
<stop offset="1" stop-color="#49D6DF"/>
</linearGradient>
<linearGradient id="paint2_linear" x1="43.0144" y1="9.85156" x2="47.6734" y2="10.1964" gradientUnits="userSpaceOnUse">
<stop stop-color="#4BD8B5"/>
<stop offset="1" stop-color="#49D6DF"/>
</linearGradient>
<linearGradient id="paint3_linear" x1="43.0144" y1="26.6094" x2="47.3049" y2="27.9099" gradientUnits="userSpaceOnUse">
<stop stop-color="#4BD8B5"/>
<stop offset="1" stop-color="#49D6DF"/>
</linearGradient>
<linearGradient id="paint4_linear" x1="66.7322" y1="17.9121" x2="74.4214" y2="24.9866" gradientUnits="userSpaceOnUse">
<stop stop-color="#4BD8B5"/>
<stop offset="1" stop-color="#49D6DF"/>
</linearGradient>
<linearGradient id="paint5_linear" x1="64.3073" y1="1.1875" x2="75.2806" y2="5.38466" gradientUnits="userSpaceOnUse">
<stop stop-color="#4BD8B5"/>
<stop offset="1" stop-color="#49D6DF"/>
</linearGradient>
<linearGradient id="paint6_linear" x1="64.3074" y1="31.1016" x2="75.2807" y2="35.2987" gradientUnits="userSpaceOnUse">
<stop stop-color="#4BD8B5"/>
<stop offset="1" stop-color="#49D6DF"/>
</linearGradient>
<linearGradient id="paint7_linear" x1="10.5814" y1="17.9121" x2="18.2703" y2="24.983" gradientUnits="userSpaceOnUse">
<stop stop-color="#4BD8B5"/>
<stop offset="1" stop-color="#49D6DF"/>
</linearGradient>
<linearGradient id="paint8_linear" x1="14.4891" y1="1.1875" x2="25.4624" y2="5.38465" gradientUnits="userSpaceOnUse">
<stop stop-color="#4BD8B5"/>
<stop offset="1" stop-color="#49D6DF"/>
</linearGradient>
<linearGradient id="paint9_linear" x1="14.4891" y1="31.1016" x2="25.4624" y2="35.2987" gradientUnits="userSpaceOnUse">
<stop stop-color="#4BD8B5"/>
<stop offset="1" stop-color="#49D6DF"/>
</linearGradient>
<linearGradient id="paint10_linear" x1="56.9291" y1="8.14648" x2="61.2207" y2="9.4483" gradientUnits="userSpaceOnUse">
<stop stop-color="#4BD8B5"/>
<stop offset="1" stop-color="#49D6DF"/>
</linearGradient>
</defs>
</svg>
